<svg width="5794" height="5743" viewBox="0 0 5794 5743" fill="none" xmlns="http://www.w3.org/2000/svg">
<path d="M3945.16 4193.41C3898.37 4252.78 3826.94 4287.5 3751.48 4286.99L2038.06 4284.48C1963.11 4284.48 1891.67 4249.76 1844.89 4190.39L778.907 2837.47C732.122 2778.1 714.515 2700.12 731.116 2626.16L1115.45 941.674C1132.05 867.713 1181.35 805.325 1249.27 772.622L2794.66 24.4651C2862.07 -8.23841 2941.05 -8.23842 3008.97 24.9683L4551.85 777.15C4619.26 810.357 4668.56 872.745 4685.16 946.705L5063.96 2632.7C5080.56 2706.66 5062.45 2784.14 5015.67 2843.51L3945.16 4193.41Z" fill="url(#paint0_linear_4_62)"/>
<path d="M3159.62 2628.13C3201.88 2628.63 3246.15 2630.64 3258.22 2632.65C3270.3 2634.67 3298.98 2640.7 3321.11 2646.73C3343.75 2652.77 3376.45 2663.83 3394.56 2670.87C3412.17 2677.91 3437.33 2689.48 3450.41 2696.52C3463.49 2703.56 3483.61 2715.13 3494.68 2721.66C3506.25 2728.2 3526.88 2742.28 3540.97 2752.84C3555.05 2763.4 3582.73 2788.04 3603.35 2808.16C3623.48 2827.77 3648.13 2854.93 3658.19 2868C3667.75 2881.08 3683.85 2903.71 3693.41 2917.79C3702.46 2931.87 3716.55 2955.5 3724.1 2970.59C3732.15 2985.68 3744.22 3013.33 3751.77 3032.44C3758.81 3051.05 3767.87 3077.2 3771.89 3090.78C3775.41 3103.85 3778.94 3118.44 3779.94 3122.96C3780.95 3127.99 3783.97 3143.08 3786.98 3157.16C3790 3171.24 3793.02 3198.39 3794.53 3217.5C3795.54 3236.11 3798.56 3253.71 3800.57 3255.72C3803.08 3258.74 3813.65 3260.25 3832.77 3260.25C3848.36 3260.25 3867.98 3261.25 3877.04 3263.26C3885.59 3264.77 3903.7 3268.29 3916.78 3270.3C3929.87 3272.82 3950.49 3277.85 3963.07 3281.37C3975.14 3284.89 3993.26 3291.43 4003.82 3294.95C4013.88 3298.47 4034.51 3307.52 4049.6 3315.06C4064.7 3322.1 4091.36 3337.69 4109.47 3349.26C4130.6 3363.34 4155.26 3383.96 4180.91 3410.61C4203.05 3432.73 4227.7 3461.4 4237.26 3475.98C4246.32 3490.06 4258.89 3511.69 4264.93 3523.76C4270.97 3535.82 4276 3548.9 4276 3552.92C4276 3556.44 4268.45 3569.01 4259.4 3580.08C4250.34 3591.64 4222.17 3627.85 4196.01 3660.54C4169.85 3693.73 4144.69 3725.91 4139.16 3732.45C4133.62 3739.49 4114 3764.63 4094.88 3789.28C4075.77 3813.92 4059.16 3834.53 4058.16 3835.54C4057.15 3836.55 4048.09 3848.11 4037.53 3861.19C4026.96 3874.26 4010.36 3895.89 4000.3 3908.96C3990.24 3922.04 3981.18 3933.6 3980.18 3934.61C3979.17 3935.61 3969.11 3948.19 3958.04 3962.27C3946.47 3976.35 3935.4 3990.43 3932.38 3993.44C3929.36 3996.96 3921.82 4006.52 3915.28 4015.57C3908.74 4024.12 3886.6 4052.28 3866.47 4077.93C3845.85 4103.58 3824.72 4129.72 3818.68 4135.76C3812.64 4142.3 3800.57 4149.34 3792.02 4152.35C3777.93 4156.38 3744.22 4157.38 3563.61 4156.88C3447.39 4156.38 3044.91 4155.37 2669.59 4154.87C2294.28 4154.37 1981.85 4152.86 1975.31 4151.85C1968.77 4150.34 1957.2 4145.82 1949.66 4141.79C1942.11 4137.27 1932.05 4129.22 1927.02 4124.19C1921.98 4118.66 1910.92 4106.09 1902.87 4095.53C1894.82 4084.97 1878.21 4063.35 1866.14 4047.25C1854.07 4031.66 1843.5 4018.09 1842.49 4017.08C1840.99 4016.07 1827.9 3998.98 1812.31 3979.36C1797.22 3959.25 1775.58 3931.59 1764.51 3917.51C1752.94 3903.43 1734.33 3879.79 1722.76 3864.71C1710.68 3849.62 1698.61 3834.53 1696.09 3831.52C1693.07 3828.5 1686.03 3818.95 1679.99 3810.9C1673.95 3802.85 1656.85 3780.73 1642.26 3761.62C1627.67 3743.01 1593.96 3700.27 1567.3 3666.57C1540.63 3633.38 1519 3604.22 1519 3602.71C1519 3600.7 1523.53 3592.65 1529.06 3584.6C1534.6 3576.56 1549.19 3559.96 1562.27 3547.39C1574.84 3535.32 1591.45 3520.74 1598.99 3514.7C1606.54 3509.17 1622.64 3498.11 1634.71 3490.57C1646.79 3483.02 1663.89 3473.47 1671.94 3469.95C1680.5 3465.92 1693.58 3460.39 1701.12 3457.38C1708.67 3453.86 1725.77 3448.32 1739.36 3444.8C1752.94 3441.28 1767.53 3438.27 1771.56 3438.27C1776.09 3438.27 1781.12 3436.25 1783.13 3434.24C1785.64 3431.23 1787.66 3409.1 1788.66 3378.42C1790.17 3346.24 1793.19 3312.55 1798.22 3289.41C1802.25 3268.29 1810.3 3237.62 1815.83 3220.52C1821.36 3203.92 1831.43 3178.28 1837.97 3164.2C1844.51 3150.12 1856.58 3126.98 1865.13 3112.9C1874.19 3098.82 1889.28 3076.19 1898.84 3063.12C1908.4 3050.04 1932.55 3023.89 1951.67 3004.78C1971.29 2985.68 1999.97 2961.03 2016.06 2949.97C2031.66 2938.91 2061.85 2921.31 2082.47 2910.24C2103.1 2899.68 2128.76 2888.12 2140.33 2884.09C2151.4 2880.07 2171.52 2874.04 2184.6 2870.52C2197.68 2866.49 2218.31 2861.46 2230.39 2858.95C2245.48 2855.93 2277.68 2854.42 2331.01 2854.42C2382.83 2854.42 2415.53 2855.93 2427.6 2858.45C2438.17 2860.96 2452.76 2864.98 2460.3 2867C2467.85 2869.01 2488.48 2875.54 2506.09 2881.08C2523.7 2887.11 2552.88 2899.18 2570.99 2908.23C2588.6 2917.28 2604.69 2924.83 2606.71 2924.83C2608.22 2924.83 2615.76 2915.77 2623.31 2904.71C2630.35 2894.15 2645.45 2874.04 2656.01 2860.96C2666.58 2847.89 2689.22 2823.75 2705.82 2808.16C2722.42 2792.07 2749.08 2768.93 2764.68 2756.36C2780.78 2744.29 2803.42 2727.7 2816 2720.66C2828.07 2713.11 2854.23 2699.03 2873.85 2688.98C2893.48 2679.42 2925.67 2666.35 2945.29 2659.81C2964.92 2653.27 2994.6 2644.72 3011.7 2640.7C3028.31 2637.18 3051.45 2632.15 3062.52 2630.64C3073.59 2628.63 3117.36 2627.63 3159.62 2628.13Z" fill="white"/>
<path d="M2213.39 1370.07H2375.43L2157.03 1092.84L2367.88 826.187H2211.88L2030.73 1064.67V826.187H1898.38V1370.07H2030.73V1130.07L2213.39 1370.07ZM2865.06 937.378H2732.71V1172.34C2732.71 1231.2 2700 1263.91 2648.67 1263.91C2599.36 1263.91 2566.15 1231.2 2566.15 1172.34V937.378H2434.3V1189.95C2434.3 1305.67 2501.73 1374.59 2601.87 1374.59C2659.74 1374.59 2706.04 1347.93 2732.71 1311.2V1370.07H2865.06V937.378ZM3093.01 998.256V796H2960.67V1369.56H3093.01V1309.19C3117.17 1346.92 3162.96 1375.6 3226.36 1375.6C3332.54 1375.6 3417.08 1289.06 3417.08 1152.72C3417.08 1016.37 3333.05 930.838 3226.36 930.838C3164.47 930.838 3117.17 959.516 3093.01 998.256ZM3282.22 1152.72C3282.22 1221.64 3236.93 1260.38 3186.61 1260.38C3137.29 1260.38 3092.01 1222.15 3092.01 1153.22C3092.01 1084.29 3137.29 1046.56 3186.61 1046.56C3236.93 1046.56 3282.22 1083.79 3282.22 1152.72ZM3677.24 1037C3721.53 1037 3758.76 1064.17 3758.76 1111.46H3592.7C3600.76 1063.66 3633.97 1037 3677.24 1037ZM3884.07 1226.17H3743.17C3732.09 1249.32 3711.46 1267.93 3674.22 1267.93C3631.45 1267.93 3596.73 1241.77 3592.2 1184.92H3892.12C3893.63 1171.83 3894.13 1158.75 3894.13 1146.17C3894.13 1014.86 3805.06 930.838 3678.75 930.838C3550.43 930.838 3460.36 1016.37 3460.36 1153.22C3460.36 1290.57 3551.94 1375.6 3678.75 1375.6C3786.44 1375.6 3863.43 1310.7 3884.07 1226.17ZM1664.89 2073.94C1662.88 1912.94 1428.88 1961.74 1428.88 1892.81C1428.88 1872.18 1445.99 1859.61 1476.69 1859.61C1513.92 1859.61 1536.57 1878.72 1540.59 1908.41H1662.88C1654.32 1822.88 1592.43 1760.99 1480.71 1760.99C1367.49 1760.99 1304.59 1821.37 1304.59 1895.33C1304.59 2053.81 1540.59 2003.5 1540.59 2073.43C1540.59 2092.55 1522.48 2108.15 1488.26 2108.15C1452.03 2108.15 1424.85 2088.02 1421.84 2057.84H1291C1297.04 2141.36 1374.53 2205.76 1489.77 2205.76C1598.46 2205.76 1664.89 2149.41 1664.89 2073.94ZM1746.41 2199.72H1878.75V1767.53H1746.41V2199.72ZM1813.34 1722.25C1859.63 1722.25 1891.34 1690.56 1891.34 1650.81C1891.34 1610.56 1859.63 1578.86 1813.34 1578.86C1766.03 1578.86 1734.33 1610.56 1734.33 1650.81C1734.33 1690.56 1766.03 1722.25 1813.34 1722.25ZM2571.18 2199.72H2703.02V1947.15C2703.02 1830.93 2633.58 1762.5 2526.9 1762.5C2463.99 1762.5 2409.65 1797.22 2380.96 1843C2351.78 1791.18 2298.94 1762.5 2234.02 1762.5C2177.16 1762.5 2133.38 1786.65 2107.72 1821.37V1767.03H1974.87V2199.72H2107.72V1964.76C2107.72 1908.41 2139.92 1877.22 2190.75 1877.22C2241.07 1877.22 2273.27 1908.41 2273.27 1964.76V2199.72H2405.12V1964.76C2405.12 1908.41 2437.83 1877.22 2488.15 1877.22C2538.47 1877.22 2571.18 1908.41 2571.18 1964.76V2199.72ZM2928.46 1828.41V1767.53H2795.61V2406H2928.46V2139.34C2952.11 2175.57 2997.9 2205.76 3061.81 2205.76C3167.99 2205.76 3252.03 2119.22 3252.03 1982.87C3252.03 1846.52 3167.99 1760.99 3061.81 1760.99C2997.9 1760.99 2952.11 1790.68 2928.46 1828.41ZM3117.17 1982.87C3117.17 2051.8 3072.38 2090.54 3022.06 2090.54C2972.24 2090.54 2927.45 2052.3 2927.45 1983.37C2927.45 1914.45 2972.24 1876.71 3022.06 1876.71C3072.38 1876.71 3117.17 1913.94 3117.17 1982.87ZM3321.97 2199.72H3454.32V1626.16H3321.97V2199.72ZM3550.43 2199.72H3683.28V1767.53H3550.43V2199.72ZM3617.36 1722.25C3663.66 1722.25 3695.36 1690.56 3695.36 1651.31C3695.36 1611.06 3663.66 1579.37 3617.36 1579.37C3570.06 1579.37 3538.36 1611.06 3538.36 1651.31C3538.36 1690.56 3570.06 1722.25 3617.36 1722.25ZM3792.48 2199.72H3924.83V1877.22H3996.28V1767.53H3924.83V1763.51C3924.83 1717.73 3942.94 1702.13 3993.77 1705.65V1592.95C3861.92 1585.91 3792.48 1641.75 3792.48 1754.96V1767.53H3744.17V1877.22H3792.48V2199.72ZM4257.45 2038.22L4157.31 1767.53H4009.37L4185.49 2185.13L4085.85 2405.5H4228.77L4500 1767.53H4356.58L4257.45 2038.22Z" fill="white"/>
<path fill-rule="evenodd" clip-rule="evenodd" d="M2892.64 3001.84C2860.08 3011.61 2841.96 3088.47 2857.57 3150.56C2860.25 3161.2 2860.61 3164.37 2860.61 3177.08V3191.52L2856.85 3193.09C2854.79 3193.96 2849.16 3195.26 2844.35 3195.98C2839.54 3196.7 2834.7 3197.77 2833.6 3198.36C2832.5 3198.95 2828.31 3199.95 2824.28 3200.57C2797.31 3204.76 2758.27 3221.73 2720.75 3245.59C2698.18 3259.94 2687.13 3256.93 2675.56 3233.29C2653.75 3188.76 2586.14 3138.54 2555.48 3144.11C2502.97 3153.64 2543.47 3240.79 2622.01 3287.28C2644.08 3300.34 2648.16 3309.67 2638.5 3324.96C2636.15 3328.67 2632.07 3335.1 2629.44 3339.24C2626.81 3343.39 2624.65 3347.13 2624.65 3347.56C2624.65 3347.99 2623.21 3350.58 2621.46 3353.33C2605.79 3377.8 2587.96 3427.79 2583.39 3460.11C2581.39 3474.2 2569.46 3477.99 2547.51 3471.5C2472.27 3449.26 2370.55 3481.06 2393.22 3519.74C2398.99 3529.59 2414.98 3542.63 2422.85 3543.91C2424.86 3544.24 2430.36 3545.85 2435.08 3547.49C2457.94 3555.44 2515.24 3555.82 2542.49 3548.2C2548.64 3546.49 2553.91 3545.87 2564.85 3545.61C2581.91 3545.21 2581.36 3544.82 2583.71 3559C2591.18 3604.25 2607.29 3645.2 2633.68 3686.05C2636.91 3691.04 2641.22 3697.97 2643.26 3701.46L2646.96 3707.78L2643.84 3711.73C2638.74 3718.17 2630.97 3724.61 2620.7 3730.93C2581.49 3755.02 2545.48 3795.64 2535.76 3826.73C2509.66 3910.18 2621.03 3878.06 2674.73 3786.64C2688.49 3763.22 2698.08 3758.52 2712.54 3768.11C2752.11 3794.36 2786.98 3810.07 2822.56 3817.68C2827.98 3818.84 2833.88 3820.39 2835.67 3821.14C2837.46 3821.88 2841.65 3822.81 2844.98 3823.19C2860.33 3824.94 2860.61 3825.27 2860.61 3841.66C2860.61 3852.22 2860.23 3854.93 2857.55 3863.66C2845.92 3901.43 2850.46 3955.81 2868.19 3991.1C2905.94 4066.23 2960.06 3970.61 2937.54 3868.57C2929.82 3833.58 2932.2 3826.62 2953.38 3822.25C3003.46 3811.93 3029.97 3801.14 3075.06 3772.75C3098.43 3758.03 3103.64 3759.73 3120.05 3787.46C3161.17 3856.95 3242.62 3898.42 3262.27 3859.87C3270.82 3843.09 3261.02 3817.56 3231.4 3779.49C3222.5 3768.05 3195.65 3744.32 3182.28 3736.08C3166.89 3726.6 3152.69 3715.26 3150.08 3710.37C3148.26 3706.98 3149.12 3705.08 3160.31 3687.69C3186.05 3647.69 3196.08 3624.86 3205.97 3583.7C3208.04 3575.1 3210.93 3563.07 3212.4 3556.97L3215.07 3545.88L3228.68 3545.91C3239.8 3545.94 3243.58 3546.35 3249.39 3548.17C3319.98 3570.19 3422.92 3537.65 3403.38 3499.49C3388.5 3470.44 3306.08 3453.86 3254.07 3469.45C3243.4 3472.65 3234.93 3473.59 3223.63 3472.84L3215.05 3472.27L3212.9 3463.69C3211.71 3458.98 3208.82 3446.95 3206.47 3436.97C3196.62 3395.13 3185.08 3368.92 3158.95 3329.09C3145.82 3309.07 3148.54 3301.45 3173.71 3287.62C3252.73 3244.18 3293.32 3143.35 3231.69 3143.56C3214.32 3143.62 3209.17 3145.93 3177.74 3167.75C3157.14 3182.06 3131.82 3210.72 3118.52 3234.78C3105.08 3259.12 3097.76 3260.46 3070.89 3243.46C3036.86 3221.94 3006.38 3208.44 2977.37 3202.06C2973.33 3201.17 2968.2 3199.99 2965.99 3199.45C2963.77 3198.9 2957.49 3197.57 2952.04 3196.48C2931.28 3192.35 2927.83 3184.85 2935.08 3159.66C2955.4 3089.12 2928.99 2990.92 2892.64 3001.84ZM2859.17 3289.99C2860.52 3293 2860.97 3383.98 2859.66 3388.85C2858.11 3394.62 2855.96 3396.32 2846.84 3399.01L2839.04 3401.3L2803.44 3365.66C2782.74 3344.94 2767.84 3329.25 2767.84 3328.19C2767.84 3324.06 2794.09 3308.9 2815.76 3300.52C2843.6 3289.73 2857.54 3286.36 2859.17 3289.99ZM2952.93 3291.69C2979.12 3298.71 3026.99 3322.11 3026.99 3327.89C3026.99 3328.55 3010.73 3345.34 2990.85 3365.22L2954.71 3401.35L2946.73 3398.59C2931.78 3393.42 2931.94 3394.09 2932.39 3336.94C2932.8 3284.14 2931.93 3286.06 2952.93 3291.69ZM2722.46 3385.77C2724.96 3387.74 2740.75 3403.25 2757.56 3420.22C2792.51 3455.53 2790.1 3451.35 2784.01 3465.98L2780.76 3473.78L2743.29 3473.77C2695.34 3473.77 2677.11 3473 2676.32 3470.94C2674.06 3465.05 2686.31 3429.99 2700.38 3402.09C2712.26 3378.53 2712.8 3378.13 2722.46 3385.77ZM3084.32 3384.99C3096.96 3402.44 3115.7 3448.99 3118.13 3468.99L3118.72 3473.78H3066.82H3014.93L3012.26 3468.51C3010.79 3465.61 3008.73 3460.77 3007.69 3457.74L3005.81 3452.25L3013.56 3444.11C3063 3392.16 3079.51 3378.36 3084.32 3384.99ZM2781.58 3549.04C2783.09 3551.61 2785.39 3556.65 2786.69 3560.24L2789.06 3566.78L2765.09 3591.12C2751.9 3604.51 2735.28 3621.13 2728.16 3628.05L2715.21 3640.64L2712.82 3637.87C2698.13 3620.79 2671.72 3553.34 2677.47 3547.58C2679.69 3545.36 2691.9 3544.78 2741.33 3544.55L2778.85 3544.37L2781.58 3549.04ZM3089.9 3545.04C3120.44 3545.82 3118.73 3545.04 3116.74 3557.34C3114.65 3570.33 3103.13 3600.68 3094.04 3617.18C3078.89 3644.65 3085.07 3646.33 3041.8 3603.04L3005.69 3566.92L3008.32 3559.94C3009.77 3556.1 3012.08 3551.03 3013.47 3548.66L3015.99 3544.37H3039.98C3053.18 3544.37 3075.64 3544.67 3089.9 3545.04ZM2985.21 3648.49C3032.9 3695.36 3031.51 3692.39 3010.86 3703.38C2987.35 3715.89 2954.68 3728.21 2939 3730.47L2934.2 3731.16L2934.47 3678.41L2934.73 3625.66L2942.79 3622.37C2954.81 3617.48 2951.73 3615.58 2985.21 3648.49ZM2854.81 3623.48L2860.61 3626.2V3678.7V3731.21L2855.78 3730.63C2849.09 3729.84 2827.09 3723.29 2819.77 3719.91C2816.44 3718.37 2811.45 3716.3 2808.68 3715.3C2795.79 3710.66 2767.84 3694.93 2767.84 3692.32C2767.84 3689.33 2830.53 3625.65 2837.82 3621.24C2840.89 3619.38 2848.09 3620.33 2854.81 3623.48Z" fill="url(#paint1_linear_4_62)"/>
<path d="M401.884 5396L181.412 5126.05V5396H59.892V4790.14H181.412V5061.82L401.884 4790.14H548.576L298.592 5090.46L555.52 5396H401.884ZM1089.41 4915.13V5396H967.027V5335.24C951.403 5356.07 930.86 5372.56 905.399 5384.72C880.516 5396.29 853.319 5402.08 823.807 5402.08C786.193 5402.08 752.92 5394.26 723.987 5378.64C695.053 5362.44 672.196 5339 655.415 5308.33C639.212 5277.08 631.111 5240.05 631.111 5197.23V4915.13H752.631V5179.87C752.631 5218.06 762.179 5247.57 781.275 5268.4C800.371 5288.66 826.411 5298.78 859.395 5298.78C892.957 5298.78 919.287 5288.66 938.383 5268.4C957.479 5247.57 967.027 5218.06 967.027 5179.87V4915.13H1089.41ZM1330.83 4985.44C1346.46 4962.29 1367.87 4943.48 1395.07 4929.02C1422.84 4914.55 1454.38 4907.32 1489.68 4907.32C1530.76 4907.32 1567.8 4917.44 1600.78 4937.7C1634.34 4957.95 1660.67 4986.88 1679.77 5024.5C1699.44 5061.53 1709.28 5104.64 1709.28 5153.83C1709.28 5203.01 1699.44 5246.7 1679.77 5284.9C1660.67 5322.51 1634.34 5351.73 1600.78 5372.56C1567.8 5393.4 1530.76 5403.81 1489.68 5403.81C1453.8 5403.81 1422.26 5396.87 1395.07 5382.98C1368.45 5368.51 1347.04 5350 1330.83 5327.43V5396H1209.31V4753.68H1330.83V4985.44ZM1585.16 5153.83C1585.16 5124.89 1579.08 5100.01 1566.93 5079.18C1555.36 5057.77 1539.73 5041.57 1520.06 5030.57C1500.96 5019.58 1480.13 5014.08 1457.56 5014.08C1435.57 5014.08 1414.74 5019.87 1395.07 5031.44C1375.97 5042.43 1360.35 5058.64 1348.19 5080.05C1336.62 5101.46 1330.83 5126.63 1330.83 5155.56C1330.83 5184.5 1336.62 5209.67 1348.19 5231.08C1360.35 5252.49 1375.97 5268.98 1395.07 5280.56C1414.74 5291.55 1435.57 5297.05 1457.56 5297.05C1480.13 5297.05 1500.96 5291.26 1520.06 5279.69C1539.73 5268.11 1555.36 5251.62 1566.93 5230.21C1579.08 5208.8 1585.16 5183.34 1585.16 5153.83ZM2244.61 5145.15C2244.61 5162.51 2243.45 5178.13 2241.14 5192.02H1889.6C1892.49 5226.74 1904.64 5253.94 1926.05 5273.61C1947.46 5293.29 1973.79 5303.12 2005.04 5303.12C2050.18 5303.12 2082.29 5283.74 2101.39 5244.97H2232.46C2218.57 5291.26 2191.95 5329.45 2152.6 5359.54C2113.25 5389.06 2064.93 5403.81 2007.64 5403.81C1961.35 5403.81 1919.69 5393.69 1882.65 5373.43C1846.2 5352.6 1817.55 5323.38 1796.72 5285.76C1776.47 5248.15 1766.34 5204.75 1766.34 5155.56C1766.34 5105.8 1776.47 5062.11 1796.72 5024.5C1816.97 4986.88 1845.33 4957.95 1881.78 4937.7C1918.24 4917.44 1960.19 4907.32 2007.64 4907.32C2053.36 4907.32 2094.15 4917.15 2130.03 4936.83C2166.49 4956.5 2194.55 4984.57 2214.23 5021.02C2234.48 5056.9 2244.61 5098.28 2244.61 5145.15ZM2118.75 5110.43C2118.17 5079.18 2106.88 5054.3 2084.9 5035.78C2062.91 5016.68 2036 5007.14 2004.17 5007.14C1974.08 5007.14 1948.62 5016.39 1927.79 5034.91C1907.53 5052.85 1895.09 5078.02 1890.46 5110.43H2118.75ZM2517.32 5403.81C2477.97 5403.81 2442.67 5396.87 2411.43 5382.98C2380.18 5368.51 2355.3 5349.13 2336.78 5324.82C2318.84 5300.52 2309 5273.61 2307.27 5244.1H2429.65C2431.97 5262.62 2440.94 5277.95 2456.56 5290.1C2472.76 5302.26 2492.73 5308.33 2516.45 5308.33C2539.6 5308.33 2557.54 5303.7 2570.27 5294.44C2583.58 5285.19 2590.23 5273.32 2590.23 5258.86C2590.23 5243.23 2582.13 5231.66 2565.93 5224.14C2550.31 5216.03 2525.13 5207.35 2490.41 5198.1C2454.54 5189.42 2425.02 5180.45 2401.88 5171.19C2379.31 5161.93 2359.64 5147.75 2342.85 5128.66C2326.65 5109.56 2318.55 5083.81 2318.55 5051.4C2318.55 5024.79 2326.07 5000.48 2341.12 4978.49C2356.74 4956.5 2378.73 4939.14 2407.09 4926.41C2436.02 4913.68 2469.87 4907.32 2508.64 4907.32C2565.93 4907.32 2611.64 4921.78 2645.79 4950.72C2679.93 4979.07 2698.73 5017.55 2702.21 5066.16H2585.89C2584.16 5047.06 2576.06 5032.02 2561.59 5021.02C2547.7 5009.45 2528.9 5003.66 2505.17 5003.66C2483.18 5003.66 2466.11 5007.71 2453.96 5015.82C2442.38 5023.92 2436.6 5035.2 2436.6 5049.67C2436.6 5065.87 2444.7 5078.31 2460.9 5086.99C2477.1 5095.09 2502.28 5103.48 2536.42 5112.16C2571.14 5120.84 2599.78 5129.81 2622.35 5139.07C2644.92 5148.33 2664.3 5162.8 2680.51 5182.47C2697.29 5201.57 2705.97 5227.03 2706.55 5258.86C2706.55 5286.63 2698.73 5311.51 2683.11 5333.5C2668.06 5355.49 2646.08 5372.85 2617.14 5385.58C2588.79 5397.74 2555.51 5403.81 2517.32 5403.81ZM2867.93 4857.84C2846.52 4857.84 2828.58 4851.19 2814.11 4837.88C2800.22 4823.99 2793.28 4806.92 2793.28 4786.66C2793.28 4766.41 2800.22 4749.63 2814.11 4736.32C2828.58 4722.43 2846.52 4715.49 2867.93 4715.49C2889.34 4715.49 2906.99 4722.43 2920.87 4736.32C2935.34 4749.63 2942.57 4766.41 2942.57 4786.66C2942.57 4806.92 2935.34 4823.99 2920.87 4837.88C2906.99 4851.19 2889.34 4857.84 2867.93 4857.84ZM2927.82 4915.13V5396H2806.3V4915.13H2927.82ZM3645.06 4908.18C3704.09 4908.18 3751.54 4926.41 3787.42 4962.87C3823.87 4998.75 3842.1 5049.09 3842.1 5113.9V5396H3720.58V5130.39C3720.58 5092.78 3711.03 5064.13 3691.94 5044.46C3672.84 5024.21 3646.8 5014.08 3613.82 5014.08C3580.83 5014.08 3554.5 5024.21 3534.83 5044.46C3515.73 5064.13 3506.18 5092.78 3506.18 5130.39V5396H3384.66V5130.39C3384.66 5092.78 3375.12 5064.13 3356.02 5044.46C3336.92 5024.21 3310.88 5014.08 3277.9 5014.08C3244.34 5014.08 3217.72 5024.21 3198.04 5044.46C3178.95 5064.13 3169.4 5092.78 3169.4 5130.39V5396H3047.88V4915.13H3169.4V4973.28C3185.02 4953.03 3204.99 4937.12 3229.29 4925.54C3254.17 4913.97 3281.37 4908.18 3310.88 4908.18C3348.5 4908.18 3382.06 4916.29 3411.57 4932.49C3441.08 4948.11 3463.94 4970.68 3480.14 5000.19C3495.77 4972.42 3518.34 4950.14 3547.85 4933.36C3577.94 4916.57 3610.34 4908.18 3645.06 4908.18ZM4078.94 4984.57C4094.56 4962.58 4115.97 4944.35 4143.17 4929.88C4170.94 4914.84 4202.48 4907.32 4237.78 4907.32C4278.86 4907.32 4315.9 4917.44 4348.88 4937.7C4382.45 4957.95 4408.78 4986.88 4427.87 5024.5C4447.55 5061.53 4457.38 5104.64 4457.38 5153.83C4457.38 5203.01 4447.55 5246.7 4427.87 5284.9C4408.78 5322.51 4382.45 5351.73 4348.88 5372.56C4315.9 5393.4 4278.86 5403.81 4237.78 5403.81C4202.48 5403.81 4171.23 5396.58 4144.04 5382.11C4117.42 5367.65 4095.72 5349.42 4078.94 5327.43V5625.15H3957.42V4915.13H4078.94V4984.57ZM4333.26 5153.83C4333.26 5124.89 4327.18 5100.01 4315.03 5079.18C4303.46 5057.77 4287.83 5041.57 4268.16 5030.57C4249.06 5019.58 4228.23 5014.08 4205.66 5014.08C4183.67 5014.08 4162.84 5019.87 4143.17 5031.44C4124.07 5042.43 4108.45 5058.64 4096.3 5080.05C4084.72 5101.46 4078.94 5126.63 4078.94 5155.56C4078.94 5184.5 4084.72 5209.67 4096.3 5231.08C4108.45 5252.49 4124.07 5268.98 4143.17 5280.56C4162.84 5291.55 4183.67 5297.05 4205.66 5297.05C4228.23 5297.05 4249.06 5291.26 4268.16 5279.69C4287.83 5268.11 4303.46 5251.62 4315.03 5230.21C4327.18 5208.8 4333.26 5183.34 4333.26 5153.83ZM4667.21 4753.68V5396H4545.69V4753.68H4667.21ZM4848.9 4857.84C4827.49 4857.84 4809.55 4851.19 4795.08 4837.88C4781.19 4823.99 4774.25 4806.92 4774.25 4786.66C4774.25 4766.41 4781.19 4749.63 4795.08 4736.32C4809.55 4722.43 4827.49 4715.49 4848.9 4715.49C4870.31 4715.49 4887.96 4722.43 4901.85 4736.32C4916.31 4749.63 4923.55 4766.41 4923.55 4786.66C4923.55 4806.92 4916.31 4823.99 4901.85 4837.88C4887.96 4851.19 4870.31 4857.84 4848.9 4857.84ZM4908.79 4915.13V5396H4787.27V4915.13H4908.79ZM5249.32 5014.95H5165.13V5396H5041.87V5014.95H4987.19V4915.13H5041.87V4890.82C5041.87 4831.8 5058.65 4788.4 5092.22 4760.62C5125.78 4732.85 5176.41 4719.83 5244.12 4721.56V4823.99C5214.6 4823.41 5194.06 4828.33 5182.49 4838.74C5170.92 4849.16 5165.13 4867.97 5165.13 4895.16V4915.13H5249.32V5014.95ZM5788.12 4915.13L5490.39 5623.42H5361.06L5465.22 5383.85L5272.52 4915.13H5408.8L5532.92 5251.04L5658.78 4915.13H5788.12Z" fill="url(#paint2_linear_4_62)"/>
<defs>
<linearGradient id="paint0_linear_4_62" x1="754.257" y1="0.314777" x2="5041.44" y2="4286.37" gradientUnits="userSpaceOnUse">
<stop stop-color="#5CFF68"/>
<stop offset="1" stop-color="#05CAFF"/>
</linearGradient>
<linearGradient id="paint1_linear_4_62" x1="2396.84" y1="3001.07" x2="3413.77" y2="4002.99" gradientUnits="userSpaceOnUse">
<stop stop-color="#5CFF68"/>
<stop offset="1" stop-color="#05CAFF"/>
</linearGradient>
<linearGradient id="paint2_linear_4_62" x1="39.0137" y1="4441.1" x2="603.001" y2="6916.72" gradientUnits="userSpaceOnUse">
<stop stop-color="#5CFF68"/>
<stop offset="1" stop-color="#05CAFF"/>
</linearGradient>
</defs>
</svg>
