<svg width="5794" height="5743" viewBox="0 0 5794 5743" fill="none" xmlns="http://www.w3.org/2000/svg">
<path fill-rule="evenodd" clip-rule="evenodd" d="M3945.16 4193.41C3898.37 4252.78 3826.94 4287.5 3751.48 4286.99L2038.06 4284.48C1963.11 4284.48 1891.67 4249.76 1844.89 4190.39L778.907 2837.47C732.122 2778.1 714.515 2700.12 731.116 2626.16L1115.45 941.674C1132.05 867.713 1181.35 805.325 1249.27 772.622L2794.66 24.4651C2862.07 -8.23841 2941.05 -8.23842 3008.97 24.9683L4551.85 777.15C4619.26 810.357 4668.56 872.745 4685.16 946.705L5063.96 2632.7C5080.56 2706.66 5062.45 2784.14 5015.67 2843.51L3945.16 4193.41ZM3159.62 2628.13C3201.88 2628.63 3246.15 2630.64 3258.22 2632.65C3270.3 2634.67 3298.98 2640.7 3321.11 2646.73C3343.75 2652.77 3376.45 2663.83 3394.56 2670.87C3412.17 2677.91 3437.33 2689.48 3450.41 2696.52C3463.49 2703.56 3483.61 2715.13 3494.68 2721.66C3506.25 2728.2 3526.88 2742.28 3540.97 2752.84C3555.05 2763.4 3582.73 2788.04 3603.35 2808.16C3623.48 2827.77 3648.13 2854.93 3658.19 2868C3667.75 2881.08 3683.85 2903.71 3693.41 2917.79C3702.46 2931.87 3716.55 2955.5 3724.1 2970.59C3732.15 2985.68 3744.22 3013.33 3751.77 3032.44C3758.81 3051.05 3767.87 3077.2 3771.89 3090.78C3775.41 3103.85 3778.94 3118.44 3779.94 3122.96L3780.09 3123.7C3781.22 3129.35 3784.11 3143.72 3786.98 3157.16C3790 3171.24 3793.02 3198.39 3794.53 3217.5C3795.54 3236.11 3798.56 3253.71 3800.57 3255.72C3803.08 3258.74 3813.65 3260.25 3832.77 3260.25C3848.36 3260.25 3867.98 3261.25 3877.04 3263.26C3879.56 3263.7 3882.9 3264.32 3886.71 3265.03C3895.82 3266.71 3907.55 3268.88 3916.78 3270.3C3929.87 3272.82 3950.49 3277.85 3963.07 3281.37C3971.44 3283.81 3982.73 3287.71 3992.38 3291.04L3992.4 3291.05C3996.66 3292.52 4000.59 3293.87 4003.82 3294.95C4013.88 3298.47 4034.51 3307.52 4049.6 3315.06C4064.7 3322.1 4091.36 3337.69 4109.47 3349.26C4130.6 3363.34 4155.26 3383.96 4180.91 3410.61C4203.05 3432.73 4227.7 3461.4 4237.26 3475.98C4246.32 3490.06 4258.89 3511.69 4264.93 3523.76C4270.97 3535.82 4276 3548.9 4276 3552.92C4276 3556.44 4268.45 3569.01 4259.4 3580.08C4257.9 3581.99 4255.89 3584.57 4253.44 3587.7L4253.17 3588.05L4253.15 3588.07C4240.73 3603.96 4217.68 3633.46 4196.01 3660.54C4188.77 3669.72 4181.61 3678.82 4174.93 3687.33L4174.87 3687.4C4157.4 3709.61 4143.16 3727.72 4139.16 3732.45C4133.62 3739.49 4114 3764.63 4094.88 3789.28C4075.77 3813.92 4059.16 3834.53 4058.16 3835.54C4057.59 3836.1 4054.51 3839.97 4050.05 3845.56C4046.54 3849.96 4042.18 3855.43 4037.53 3861.19C4027.78 3873.25 4012.89 3892.6 4002.74 3905.79L4000.3 3908.96C3990.24 3922.04 3981.18 3933.6 3980.18 3934.61C3979.17 3935.61 3969.11 3948.19 3958.04 3962.27C3953.95 3967.25 3949.92 3972.23 3946.28 3976.72L3946.23 3976.79L3946.22 3976.8C3939.61 3984.97 3934.33 3991.5 3932.38 3993.44C3929.36 3996.96 3921.82 4006.52 3915.28 4015.57C3909.8 4022.73 3893.37 4043.66 3876.35 4065.34L3866.47 4077.93C3845.85 4103.58 3824.72 4129.72 3818.68 4135.76C3812.64 4142.3 3800.57 4149.34 3792.02 4152.35C3777.93 4156.38 3744.22 4157.38 3563.61 4156.88C3447.39 4156.38 3044.91 4155.37 2669.59 4154.87C2294.28 4154.37 1981.85 4152.86 1975.31 4151.85C1968.77 4150.34 1957.2 4145.82 1949.66 4141.79C1942.11 4137.27 1932.05 4129.22 1927.02 4124.19C1921.98 4118.66 1910.92 4106.09 1902.87 4095.53C1900.91 4092.96 1898.45 4089.75 1895.67 4086.11C1887.02 4074.79 1875.28 4059.44 1866.14 4047.25C1854.07 4031.66 1843.5 4018.09 1842.49 4017.08C1841.48 4016.4 1835.23 4008.45 1826.5 3997.35C1822.25 3991.94 1817.42 3985.79 1812.31 3979.36C1797.22 3959.25 1775.58 3931.59 1764.51 3917.51C1752.94 3903.43 1734.33 3879.79 1722.76 3864.71C1710.68 3849.62 1698.61 3834.53 1696.09 3831.52C1693.43 3828.86 1687.65 3821.13 1682.19 3813.83L1682.03 3813.62C1681.34 3812.7 1680.66 3811.79 1679.99 3810.9C1676.6 3806.38 1669.73 3797.43 1661.77 3787.07C1655.55 3778.97 1648.66 3770.01 1642.26 3761.62C1627.67 3743.01 1593.96 3700.27 1567.3 3666.57C1540.63 3633.38 1519 3604.22 1519 3602.71C1519 3600.7 1523.53 3592.65 1529.06 3584.6C1534.6 3576.56 1549.19 3559.96 1562.27 3547.39C1574.84 3535.32 1591.45 3520.74 1598.99 3514.7C1606.54 3509.17 1622.64 3498.11 1634.71 3490.57C1646.79 3483.02 1663.89 3473.47 1671.94 3469.95C1680.5 3465.92 1693.58 3460.39 1701.12 3457.38C1708.67 3453.86 1725.77 3448.32 1739.36 3444.8C1752.94 3441.28 1767.53 3438.27 1771.56 3438.27C1776.09 3438.27 1781.12 3436.25 1783.13 3434.24C1785.64 3431.23 1787.66 3409.1 1788.66 3378.42C1790.17 3346.24 1793.19 3312.55 1798.22 3289.41C1802.25 3268.29 1810.3 3237.62 1815.83 3220.52C1821.36 3203.92 1831.43 3178.28 1837.97 3164.2C1844.51 3150.12 1856.58 3126.98 1865.13 3112.9C1874.19 3098.82 1889.28 3076.19 1898.84 3063.12C1908.4 3050.04 1932.55 3023.89 1951.67 3004.78C1971.29 2985.68 1999.97 2961.03 2016.06 2949.97C2031.66 2938.91 2061.85 2921.31 2082.47 2910.24C2103.1 2899.68 2128.76 2888.12 2140.33 2884.09C2151.4 2880.07 2171.52 2874.04 2184.6 2870.52C2197.68 2866.49 2218.31 2861.46 2230.39 2858.95C2245.48 2855.93 2277.68 2854.42 2331.01 2854.42C2382.83 2854.42 2415.53 2855.93 2427.6 2858.45C2436.23 2860.5 2447.55 2863.56 2455.51 2865.71L2455.52 2865.71L2455.68 2865.75C2457.4 2866.22 2458.96 2866.64 2460.3 2867C2467.18 2868.83 2484.91 2874.41 2501.33 2879.58L2506.09 2881.08C2523.7 2887.11 2552.88 2899.18 2570.99 2908.23C2588.6 2917.28 2604.69 2924.83 2606.71 2924.83C2608.22 2924.83 2615.76 2915.77 2623.31 2904.71C2630.35 2894.15 2645.45 2874.04 2656.01 2860.96C2666.58 2847.89 2689.22 2823.75 2705.82 2808.16C2722.42 2792.07 2749.08 2768.93 2764.68 2756.36C2780.78 2744.29 2803.42 2727.7 2816 2720.66C2828.07 2713.11 2854.23 2699.03 2873.85 2688.98C2893.48 2679.42 2925.67 2666.35 2945.29 2659.81C2964.92 2653.27 2994.6 2644.72 3011.7 2640.7C3013.57 2640.3 3015.52 2639.89 3017.53 2639.46L3017.54 2639.46C3033.37 2636.09 3052.7 2631.98 3062.52 2630.64C3073.59 2628.63 3117.36 2627.63 3159.62 2628.13ZM2375.43 1370.07H2213.39L2030.73 1130.07V1370.07H1898.38V826.187H2030.73V1064.67L2211.88 826.187H2367.88L2157.03 1092.84L2375.43 1370.07ZM2732.71 937.378H2865.06V1370.07H2732.71V1311.2C2706.04 1347.93 2659.74 1374.59 2601.87 1374.59C2501.73 1374.59 2434.3 1305.67 2434.3 1189.95V937.378H2566.15V1172.34C2566.15 1231.2 2599.36 1263.91 2648.67 1263.91C2700 1263.91 2732.71 1231.2 2732.71 1172.34V937.378ZM3093.01 796V998.256C3117.17 959.516 3164.47 930.838 3226.36 930.838C3333.05 930.838 3417.08 1016.37 3417.08 1152.72C3417.08 1289.06 3332.54 1375.6 3226.36 1375.6C3162.96 1375.6 3117.17 1346.92 3093.01 1309.19V1369.56H2960.67V796H3093.01ZM3186.61 1260.38C3236.93 1260.38 3282.22 1221.64 3282.22 1152.72C3282.22 1083.79 3236.93 1046.56 3186.61 1046.56C3137.29 1046.56 3092.01 1084.29 3092.01 1153.22C3092.01 1222.15 3137.29 1260.38 3186.61 1260.38ZM3758.76 1111.46C3758.76 1064.17 3721.53 1037 3677.24 1037C3633.97 1037 3600.76 1063.66 3592.7 1111.46H3758.76ZM3743.17 1226.17H3884.07C3863.43 1310.7 3786.44 1375.6 3678.75 1375.6C3551.94 1375.6 3460.36 1290.57 3460.36 1153.22C3460.36 1016.37 3550.43 930.838 3678.75 930.838C3805.06 930.838 3894.13 1014.86 3894.13 1146.17C3894.13 1158.75 3893.63 1171.83 3892.12 1184.92H3592.2C3596.73 1241.77 3631.45 1267.93 3674.22 1267.93C3711.46 1267.93 3732.09 1249.32 3743.17 1226.17ZM1509.99 1939.64C1577.79 1955.98 1663.67 1976.68 1664.89 2073.94C1664.89 2149.41 1598.46 2205.76 1489.77 2205.76C1374.53 2205.76 1297.04 2141.36 1291 2057.84H1421.84C1424.85 2088.02 1452.03 2108.15 1488.26 2108.15C1522.48 2108.15 1540.59 2092.55 1540.59 2073.43C1540.59 2045.52 1503 2036.76 1457.81 2026.24C1389.79 2010.4 1304.59 1990.55 1304.59 1895.33C1304.59 1821.37 1367.49 1760.99 1480.71 1760.99C1592.43 1760.99 1654.32 1822.88 1662.88 1908.41H1540.59C1536.57 1878.72 1513.92 1859.61 1476.69 1859.61C1445.99 1859.61 1428.88 1872.18 1428.88 1892.81C1428.88 1920.1 1465.55 1928.94 1509.99 1939.64ZM1878.75 2199.72H1746.41V1767.53H1878.75V2199.72ZM1891.34 1650.81C1891.34 1690.56 1859.63 1722.25 1813.34 1722.25C1766.03 1722.25 1734.33 1690.56 1734.33 1650.81C1734.33 1610.56 1766.03 1578.86 1813.34 1578.86C1859.63 1578.86 1891.34 1610.56 1891.34 1650.81ZM2703.02 2199.72H2571.18V1964.76C2571.18 1908.41 2538.47 1877.22 2488.15 1877.22C2437.83 1877.22 2405.12 1908.41 2405.12 1964.76V2199.72H2273.27V1964.76C2273.27 1908.41 2241.07 1877.22 2190.75 1877.22C2139.92 1877.22 2107.72 1908.41 2107.72 1964.76V2199.72H1974.87V1767.03H2107.72V1821.37C2133.38 1786.65 2177.16 1762.5 2234.02 1762.5C2298.94 1762.5 2351.78 1791.18 2380.96 1843C2409.65 1797.22 2463.99 1762.5 2526.9 1762.5C2633.58 1762.5 2703.02 1830.93 2703.02 1947.15V2199.72ZM2928.46 1767.53V1828.41C2952.11 1790.68 2997.9 1760.99 3061.81 1760.99C3167.99 1760.99 3252.03 1846.52 3252.03 1982.87C3252.03 2119.22 3167.99 2205.76 3061.81 2205.76C2997.9 2205.76 2952.11 2175.57 2928.46 2139.34V2406H2795.61V1767.53H2928.46ZM3022.06 2090.54C3072.38 2090.54 3117.17 2051.8 3117.17 1982.87C3117.17 1913.94 3072.38 1876.71 3022.06 1876.71C2972.24 1876.71 2927.45 1914.45 2927.45 1983.37C2927.45 2052.3 2972.24 2090.54 3022.06 2090.54ZM3454.32 2199.72H3321.97V1626.16H3454.32V2199.72ZM3683.28 2199.72H3550.43V1767.53H3683.28V2199.72ZM3695.36 1651.31C3695.36 1690.56 3663.66 1722.25 3617.36 1722.25C3570.06 1722.25 3538.36 1690.56 3538.36 1651.31C3538.36 1611.06 3570.06 1579.37 3617.36 1579.37C3663.66 1579.37 3695.36 1611.06 3695.36 1651.31ZM3924.83 2199.72H3792.48V1877.22H3744.17V1767.53H3792.48V1754.96C3792.48 1641.75 3861.92 1585.91 3993.77 1592.95V1705.65C3942.94 1702.13 3924.83 1717.73 3924.83 1763.51V1767.53H3996.28V1877.22H3924.83V2199.72ZM4157.31 1767.53L4257.45 2038.22L4356.58 1767.53H4500L4228.77 2405.5H4085.85L4185.49 2185.13L4009.37 1767.53H4157.31Z" fill="white"/>
<path fill-rule="evenodd" clip-rule="evenodd" d="M2891.64 3001.84C2859.08 3011.61 2840.96 3088.47 2856.57 3150.56C2859.25 3161.2 2859.61 3164.37 2859.61 3177.08V3191.52L2855.85 3193.09C2853.79 3193.96 2848.16 3195.26 2843.35 3195.98C2838.54 3196.7 2833.7 3197.77 2832.6 3198.36C2831.5 3198.95 2827.31 3199.95 2823.28 3200.57C2796.31 3204.76 2757.27 3221.73 2719.75 3245.59C2697.18 3259.94 2686.13 3256.93 2674.56 3233.29C2652.75 3188.76 2585.14 3138.54 2554.48 3144.11C2501.97 3153.64 2542.47 3240.79 2621.01 3287.28C2643.08 3300.34 2647.16 3309.67 2637.5 3324.96C2635.15 3328.67 2631.07 3335.1 2628.44 3339.24C2625.81 3343.39 2623.65 3347.13 2623.65 3347.56C2623.65 3347.99 2622.21 3350.58 2620.46 3353.33C2604.79 3377.8 2586.96 3427.79 2582.39 3460.11C2580.39 3474.2 2568.46 3477.99 2546.51 3471.5C2471.27 3449.26 2369.55 3481.06 2392.22 3519.74C2397.99 3529.59 2413.98 3542.63 2421.85 3543.91C2423.86 3544.24 2429.36 3545.85 2434.08 3547.49C2456.94 3555.44 2514.24 3555.82 2541.49 3548.2C2547.64 3546.49 2552.91 3545.87 2563.85 3545.61C2580.91 3545.21 2580.36 3544.82 2582.71 3559C2590.18 3604.25 2606.29 3645.2 2632.68 3686.05C2635.91 3691.04 2640.22 3697.97 2642.26 3701.46L2645.96 3707.78L2642.84 3711.73C2637.74 3718.17 2629.97 3724.61 2619.7 3730.93C2580.49 3755.02 2544.48 3795.64 2534.76 3826.73C2508.66 3910.18 2620.03 3878.06 2673.73 3786.64C2687.49 3763.22 2697.08 3758.52 2711.54 3768.11C2751.11 3794.36 2785.98 3810.07 2821.56 3817.68C2826.98 3818.84 2832.88 3820.39 2834.67 3821.14C2836.46 3821.88 2840.65 3822.81 2843.98 3823.19C2859.33 3824.94 2859.61 3825.27 2859.61 3841.66C2859.61 3852.22 2859.23 3854.93 2856.55 3863.66C2844.92 3901.43 2849.46 3955.81 2867.19 3991.1C2904.94 4066.23 2959.06 3970.61 2936.54 3868.57C2928.82 3833.58 2931.2 3826.62 2952.38 3822.25C3002.46 3811.93 3028.97 3801.14 3074.06 3772.75C3097.43 3758.03 3102.64 3759.73 3119.05 3787.46C3160.17 3856.95 3241.62 3898.42 3261.27 3859.87C3269.82 3843.09 3260.02 3817.56 3230.4 3779.49C3221.5 3768.05 3194.65 3744.32 3181.28 3736.08C3165.89 3726.6 3151.69 3715.26 3149.08 3710.37C3147.26 3706.98 3148.12 3705.08 3159.31 3687.69C3185.05 3647.69 3195.08 3624.86 3204.97 3583.7C3207.04 3575.1 3209.93 3563.07 3211.4 3556.97L3214.07 3545.88L3227.68 3545.91C3238.8 3545.94 3242.58 3546.35 3248.39 3548.17C3318.98 3570.19 3421.92 3537.65 3402.38 3499.49C3387.5 3470.44 3305.08 3453.86 3253.07 3469.45C3242.4 3472.65 3233.93 3473.59 3222.63 3472.84L3214.05 3472.27L3211.9 3463.69C3210.71 3458.98 3207.82 3446.95 3205.47 3436.97C3195.62 3395.13 3184.08 3368.92 3157.95 3329.09C3144.82 3309.07 3147.54 3301.45 3172.71 3287.62C3251.73 3244.18 3292.32 3143.35 3230.69 3143.56C3213.32 3143.62 3208.17 3145.93 3176.74 3167.75C3156.14 3182.06 3130.82 3210.72 3117.52 3234.78C3104.08 3259.12 3096.76 3260.46 3069.89 3243.46C3035.86 3221.94 3005.38 3208.44 2976.37 3202.06C2972.33 3201.17 2967.2 3199.99 2964.99 3199.45C2962.77 3198.9 2956.49 3197.57 2951.04 3196.48C2930.28 3192.35 2926.83 3184.85 2934.08 3159.66C2954.4 3089.12 2927.99 2990.92 2891.64 3001.84ZM2858.17 3289.99C2859.52 3293 2859.97 3383.98 2858.66 3388.85C2857.11 3394.62 2854.96 3396.32 2845.84 3399.01L2838.04 3401.3L2802.44 3365.66C2781.74 3344.94 2766.84 3329.25 2766.84 3328.19C2766.84 3324.06 2793.09 3308.9 2814.76 3300.52C2842.6 3289.73 2856.54 3286.36 2858.17 3289.99ZM2951.93 3291.69C2978.12 3298.71 3025.99 3322.11 3025.99 3327.89C3025.99 3328.55 3009.73 3345.34 2989.85 3365.22L2953.71 3401.35L2945.73 3398.59C2930.78 3393.42 2930.94 3394.09 2931.39 3336.94C2931.8 3284.14 2930.93 3286.06 2951.93 3291.69ZM2721.46 3385.77C2723.96 3387.74 2739.75 3403.25 2756.56 3420.22C2791.51 3455.53 2789.1 3451.35 2783.01 3465.98L2779.76 3473.78L2742.29 3473.77C2694.34 3473.77 2676.11 3473 2675.32 3470.94C2673.06 3465.05 2685.31 3429.99 2699.38 3402.09C2711.26 3378.53 2711.8 3378.13 2721.46 3385.77ZM3083.32 3384.99C3095.96 3402.44 3114.7 3448.99 3117.13 3468.99L3117.72 3473.78H3065.82H3013.93L3011.26 3468.51C3009.79 3465.61 3007.73 3460.77 3006.69 3457.74L3004.81 3452.25L3012.56 3444.11C3062 3392.16 3078.51 3378.36 3083.32 3384.99ZM2780.58 3549.04C2782.09 3551.61 2784.39 3556.65 2785.69 3560.24L2788.06 3566.78L2764.09 3591.12C2750.9 3604.51 2734.28 3621.13 2727.16 3628.05L2714.21 3640.64L2711.82 3637.87C2697.13 3620.79 2670.72 3553.34 2676.47 3547.58C2678.69 3545.36 2690.9 3544.78 2740.33 3544.55L2777.85 3544.37L2780.58 3549.04ZM3088.9 3545.04C3119.44 3545.82 3117.73 3545.04 3115.74 3557.34C3113.65 3570.33 3102.13 3600.68 3093.04 3617.18C3077.89 3644.65 3084.07 3646.33 3040.8 3603.04L3004.69 3566.92L3007.32 3559.94C3008.77 3556.1 3011.08 3551.03 3012.47 3548.66L3014.99 3544.37H3038.98C3052.18 3544.37 3074.64 3544.67 3088.9 3545.04ZM2984.21 3648.49C3031.9 3695.36 3030.51 3692.39 3009.86 3703.38C2986.35 3715.89 2953.68 3728.21 2938 3730.47L2933.2 3731.16L2933.47 3678.41L2933.73 3625.66L2941.79 3622.37C2953.81 3617.48 2950.73 3615.58 2984.21 3648.49ZM2853.81 3623.48L2859.61 3626.2V3678.7V3731.21L2854.78 3730.63C2848.09 3729.84 2826.09 3723.29 2818.77 3719.91C2815.44 3718.37 2810.45 3716.3 2807.68 3715.3C2794.79 3710.66 2766.84 3694.93 2766.84 3692.32C2766.84 3689.33 2829.53 3625.65 2836.82 3621.24C2839.89 3619.38 2847.09 3620.33 2853.81 3623.48Z" fill="white"/>
<path d="M401.884 5396L181.412 5126.05V5396H59.892V4790.14H181.412V5061.82L401.884 4790.14H548.576L298.592 5090.46L555.52 5396H401.884ZM1089.41 4915.13V5396H967.027V5335.24C951.403 5356.07 930.86 5372.56 905.399 5384.72C880.516 5396.29 853.319 5402.08 823.807 5402.08C786.193 5402.08 752.92 5394.26 723.987 5378.64C695.053 5362.44 672.196 5339 655.415 5308.33C639.212 5277.08 631.111 5240.05 631.111 5197.23V4915.13H752.631V5179.87C752.631 5218.06 762.179 5247.57 781.275 5268.4C800.371 5288.66 826.411 5298.78 859.395 5298.78C892.957 5298.78 919.287 5288.66 938.383 5268.4C957.479 5247.57 967.027 5218.06 967.027 5179.87V4915.13H1089.41ZM1330.83 4985.44C1346.46 4962.29 1367.87 4943.48 1395.07 4929.02C1422.84 4914.55 1454.38 4907.32 1489.68 4907.32C1530.76 4907.32 1567.8 4917.44 1600.78 4937.7C1634.34 4957.95 1660.67 4986.88 1679.77 5024.5C1699.44 5061.53 1709.28 5104.64 1709.28 5153.83C1709.28 5203.01 1699.44 5246.7 1679.77 5284.9C1660.67 5322.51 1634.34 5351.73 1600.78 5372.56C1567.8 5393.4 1530.76 5403.81 1489.68 5403.81C1453.8 5403.81 1422.26 5396.87 1395.07 5382.98C1368.45 5368.51 1347.04 5350 1330.83 5327.43V5396H1209.31V4753.68H1330.83V4985.44ZM1585.16 5153.83C1585.16 5124.89 1579.08 5100.01 1566.93 5079.18C1555.36 5057.77 1539.73 5041.57 1520.06 5030.57C1500.96 5019.58 1480.13 5014.08 1457.56 5014.08C1435.57 5014.08 1414.74 5019.87 1395.07 5031.44C1375.97 5042.43 1360.35 5058.64 1348.19 5080.05C1336.62 5101.46 1330.83 5126.63 1330.83 5155.56C1330.83 5184.5 1336.62 5209.67 1348.19 5231.08C1360.35 5252.49 1375.97 5268.98 1395.07 5280.56C1414.74 5291.55 1435.57 5297.05 1457.56 5297.05C1480.13 5297.05 1500.96 5291.26 1520.06 5279.69C1539.73 5268.11 1555.36 5251.62 1566.93 5230.21C1579.08 5208.8 1585.16 5183.34 1585.16 5153.83ZM2244.61 5145.15C2244.61 5162.51 2243.45 5178.13 2241.14 5192.02H1889.6C1892.49 5226.74 1904.64 5253.94 1926.05 5273.61C1947.46 5293.29 1973.79 5303.12 2005.04 5303.12C2050.18 5303.12 2082.29 5283.74 2101.39 5244.97H2232.46C2218.57 5291.26 2191.95 5329.45 2152.6 5359.54C2113.25 5389.06 2064.93 5403.81 2007.64 5403.81C1961.35 5403.81 1919.69 5393.69 1882.65 5373.43C1846.2 5352.6 1817.55 5323.38 1796.72 5285.76C1776.47 5248.15 1766.34 5204.75 1766.34 5155.56C1766.34 5105.8 1776.47 5062.11 1796.72 5024.5C1816.97 4986.88 1845.33 4957.95 1881.78 4937.7C1918.24 4917.44 1960.19 4907.32 2007.64 4907.32C2053.36 4907.32 2094.15 4917.15 2130.03 4936.83C2166.49 4956.5 2194.55 4984.57 2214.23 5021.02C2234.48 5056.9 2244.61 5098.28 2244.61 5145.15ZM2118.75 5110.43C2118.17 5079.18 2106.88 5054.3 2084.9 5035.78C2062.91 5016.68 2036 5007.14 2004.17 5007.14C1974.08 5007.14 1948.62 5016.39 1927.79 5034.91C1907.53 5052.85 1895.09 5078.02 1890.46 5110.43H2118.75ZM2517.32 5403.81C2477.97 5403.81 2442.67 5396.87 2411.43 5382.98C2380.18 5368.51 2355.3 5349.13 2336.78 5324.82C2318.84 5300.52 2309 5273.61 2307.27 5244.1H2429.65C2431.97 5262.62 2440.94 5277.95 2456.56 5290.1C2472.76 5302.26 2492.73 5308.33 2516.45 5308.33C2539.6 5308.33 2557.54 5303.7 2570.27 5294.44C2583.58 5285.19 2590.23 5273.32 2590.23 5258.86C2590.23 5243.23 2582.13 5231.66 2565.93 5224.14C2550.31 5216.03 2525.13 5207.35 2490.41 5198.1C2454.54 5189.42 2425.02 5180.45 2401.88 5171.19C2379.31 5161.93 2359.64 5147.75 2342.85 5128.66C2326.65 5109.56 2318.55 5083.81 2318.55 5051.4C2318.55 5024.79 2326.07 5000.48 2341.12 4978.49C2356.74 4956.5 2378.73 4939.14 2407.09 4926.41C2436.02 4913.68 2469.87 4907.32 2508.64 4907.32C2565.93 4907.32 2611.64 4921.78 2645.79 4950.72C2679.93 4979.07 2698.73 5017.55 2702.21 5066.16H2585.89C2584.16 5047.06 2576.06 5032.02 2561.59 5021.02C2547.7 5009.45 2528.9 5003.66 2505.17 5003.66C2483.18 5003.66 2466.11 5007.71 2453.96 5015.82C2442.38 5023.92 2436.6 5035.2 2436.6 5049.67C2436.6 5065.87 2444.7 5078.31 2460.9 5086.99C2477.1 5095.09 2502.28 5103.48 2536.42 5112.16C2571.14 5120.84 2599.78 5129.81 2622.35 5139.07C2644.92 5148.33 2664.3 5162.8 2680.51 5182.47C2697.29 5201.57 2705.97 5227.03 2706.55 5258.86C2706.55 5286.63 2698.73 5311.51 2683.11 5333.5C2668.06 5355.49 2646.08 5372.85 2617.14 5385.58C2588.79 5397.74 2555.51 5403.81 2517.32 5403.81ZM2867.93 4857.84C2846.52 4857.84 2828.58 4851.19 2814.11 4837.88C2800.22 4823.99 2793.28 4806.92 2793.28 4786.66C2793.28 4766.41 2800.22 4749.63 2814.11 4736.32C2828.58 4722.43 2846.52 4715.49 2867.93 4715.49C2889.34 4715.49 2906.99 4722.43 2920.87 4736.32C2935.34 4749.63 2942.57 4766.41 2942.57 4786.66C2942.57 4806.92 2935.34 4823.99 2920.87 4837.88C2906.99 4851.19 2889.34 4857.84 2867.93 4857.84ZM2927.82 4915.13V5396H2806.3V4915.13H2927.82ZM3645.06 4908.18C3704.09 4908.18 3751.54 4926.41 3787.42 4962.87C3823.87 4998.75 3842.1 5049.09 3842.1 5113.9V5396H3720.58V5130.39C3720.58 5092.78 3711.03 5064.13 3691.94 5044.46C3672.84 5024.21 3646.8 5014.08 3613.82 5014.08C3580.83 5014.08 3554.5 5024.21 3534.83 5044.46C3515.73 5064.13 3506.18 5092.78 3506.18 5130.39V5396H3384.66V5130.39C3384.66 5092.78 3375.12 5064.13 3356.02 5044.46C3336.92 5024.21 3310.88 5014.08 3277.9 5014.08C3244.34 5014.08 3217.72 5024.21 3198.04 5044.46C3178.95 5064.13 3169.4 5092.78 3169.4 5130.39V5396H3047.88V4915.13H3169.4V4973.28C3185.02 4953.03 3204.99 4937.12 3229.29 4925.54C3254.17 4913.97 3281.37 4908.18 3310.88 4908.18C3348.5 4908.18 3382.06 4916.29 3411.57 4932.49C3441.08 4948.11 3463.94 4970.68 3480.14 5000.19C3495.77 4972.42 3518.34 4950.14 3547.85 4933.36C3577.94 4916.57 3610.34 4908.18 3645.06 4908.18ZM4078.94 4984.57C4094.56 4962.58 4115.97 4944.35 4143.17 4929.88C4170.94 4914.84 4202.48 4907.32 4237.78 4907.32C4278.86 4907.32 4315.9 4917.44 4348.88 4937.7C4382.45 4957.95 4408.78 4986.88 4427.87 5024.5C4447.55 5061.53 4457.38 5104.64 4457.38 5153.83C4457.38 5203.01 4447.55 5246.7 4427.87 5284.9C4408.78 5322.51 4382.45 5351.73 4348.88 5372.56C4315.9 5393.4 4278.86 5403.81 4237.78 5403.81C4202.48 5403.81 4171.23 5396.58 4144.04 5382.11C4117.42 5367.65 4095.72 5349.42 4078.94 5327.43V5625.15H3957.42V4915.13H4078.94V4984.57ZM4333.26 5153.83C4333.26 5124.89 4327.18 5100.01 4315.03 5079.18C4303.46 5057.77 4287.83 5041.57 4268.16 5030.57C4249.06 5019.58 4228.23 5014.08 4205.66 5014.08C4183.67 5014.08 4162.84 5019.87 4143.17 5031.44C4124.07 5042.43 4108.45 5058.64 4096.3 5080.05C4084.72 5101.46 4078.94 5126.63 4078.94 5155.56C4078.94 5184.5 4084.72 5209.67 4096.3 5231.08C4108.45 5252.49 4124.07 5268.98 4143.17 5280.56C4162.84 5291.55 4183.67 5297.05 4205.66 5297.05C4228.23 5297.05 4249.06 5291.26 4268.16 5279.69C4287.83 5268.11 4303.46 5251.62 4315.03 5230.21C4327.18 5208.8 4333.26 5183.34 4333.26 5153.83ZM4667.21 4753.68V5396H4545.69V4753.68H4667.21ZM4848.9 4857.84C4827.49 4857.84 4809.55 4851.19 4795.08 4837.88C4781.19 4823.99 4774.25 4806.92 4774.25 4786.66C4774.25 4766.41 4781.19 4749.63 4795.08 4736.32C4809.55 4722.43 4827.49 4715.49 4848.9 4715.49C4870.31 4715.49 4887.96 4722.43 4901.85 4736.32C4916.31 4749.63 4923.55 4766.41 4923.55 4786.66C4923.55 4806.92 4916.31 4823.99 4901.85 4837.88C4887.96 4851.19 4870.31 4857.84 4848.9 4857.84ZM4908.79 4915.13V5396H4787.27V4915.13H4908.79ZM5249.32 5014.95H5165.13V5396H5041.87V5014.95H4987.19V4915.13H5041.87V4890.82C5041.87 4831.8 5058.65 4788.4 5092.22 4760.62C5125.78 4732.85 5176.41 4719.83 5244.12 4721.56V4823.99C5214.6 4823.41 5194.06 4828.33 5182.49 4838.74C5170.92 4849.16 5165.13 4867.97 5165.13 4895.16V4915.13H5249.32V5014.95ZM5788.12 4915.13L5490.39 5623.42H5361.06L5465.22 5383.85L5272.52 4915.13H5408.8L5532.92 5251.04L5658.78 4915.13H5788.12Z" fill="white"/>
</svg>
