<svg width="18245" height="4287" viewBox="0 0 18245 4287" fill="none" xmlns="http://www.w3.org/2000/svg">
<path fill-rule="evenodd" clip-rule="evenodd" d="M3220.16 4193.41C3173.37 4252.78 3101.94 4287.5 3026.48 4286.99L1313.06 4284.48C1238.11 4284.48 1166.67 4249.76 1119.89 4190.39L53.9067 2837.47C7.12222 2778.1 -10.4848 2700.12 6.11611 2626.16L390.453 941.674C407.054 867.713 456.354 805.325 524.267 772.622L2069.66 24.4651C2137.07 -8.23841 2216.05 -8.23842 2283.97 24.9683L3826.85 777.15C3894.26 810.357 3943.56 872.745 3960.16 946.705L4338.96 2632.7C4355.56 2706.66 4337.45 2784.14 4290.67 2843.51L3220.16 4193.41ZM2434.62 2628.13C2476.88 2628.63 2521.15 2630.64 2533.22 2632.65C2545.3 2634.67 2573.98 2640.7 2596.11 2646.73C2618.75 2652.77 2651.45 2663.83 2669.56 2670.87C2687.17 2677.91 2712.33 2689.48 2725.41 2696.52C2738.49 2703.56 2758.61 2715.13 2769.68 2721.66C2781.25 2728.2 2801.88 2742.28 2815.97 2752.84C2830.05 2763.4 2857.73 2788.04 2878.35 2808.16C2898.48 2827.77 2923.13 2854.93 2933.19 2868C2942.75 2881.08 2958.85 2903.71 2968.41 2917.79C2977.46 2931.87 2991.55 2955.5 2999.1 2970.59C3007.15 2985.68 3019.22 3013.33 3026.77 3032.44C3033.81 3051.05 3042.87 3077.2 3046.89 3090.78C3050.41 3103.85 3053.94 3118.44 3054.94 3122.96L3055.09 3123.7C3056.22 3129.35 3059.11 3143.72 3061.98 3157.16C3065 3171.24 3068.02 3198.39 3069.53 3217.5C3070.54 3236.11 3073.56 3253.71 3075.57 3255.72C3078.08 3258.74 3088.65 3260.25 3107.77 3260.25C3123.36 3260.25 3142.98 3261.25 3152.04 3263.26C3154.56 3263.7 3157.9 3264.32 3161.71 3265.03C3170.82 3266.71 3182.55 3268.88 3191.78 3270.3C3204.87 3272.82 3225.49 3277.85 3238.07 3281.37C3246.44 3283.81 3257.73 3287.71 3267.38 3291.04L3267.4 3291.05C3271.66 3292.52 3275.59 3293.87 3278.82 3294.95C3288.88 3298.47 3309.51 3307.52 3324.6 3315.06C3339.7 3322.1 3366.36 3337.69 3384.47 3349.26C3405.6 3363.34 3430.26 3383.96 3455.91 3410.61C3478.05 3432.73 3502.7 3461.4 3512.26 3475.98C3521.32 3490.06 3533.89 3511.69 3539.93 3523.76C3545.97 3535.82 3551 3548.9 3551 3552.92C3551 3556.44 3543.45 3569.01 3534.4 3580.08C3532.9 3581.99 3530.89 3584.57 3528.44 3587.7L3528.17 3588.05L3528.15 3588.07C3515.73 3603.96 3492.68 3633.46 3471.01 3660.54C3463.77 3669.72 3456.61 3678.82 3449.93 3687.33L3449.87 3687.4C3432.4 3709.61 3418.16 3727.72 3414.16 3732.45C3408.62 3739.49 3389 3764.63 3369.88 3789.28C3350.77 3813.92 3334.16 3834.53 3333.16 3835.54C3332.59 3836.1 3329.51 3839.97 3325.05 3845.56C3321.54 3849.96 3317.18 3855.43 3312.53 3861.19C3302.78 3873.25 3287.89 3892.6 3277.74 3905.79L3275.3 3908.96C3265.24 3922.04 3256.18 3933.6 3255.18 3934.61C3254.17 3935.61 3244.11 3948.19 3233.04 3962.27C3228.95 3967.25 3224.92 3972.23 3221.28 3976.72L3221.23 3976.79L3221.22 3976.8C3214.61 3984.97 3209.33 3991.5 3207.38 3993.44C3204.36 3996.96 3196.82 4006.52 3190.28 4015.57C3184.8 4022.73 3168.37 4043.66 3151.35 4065.34L3141.47 4077.93C3120.85 4103.58 3099.72 4129.72 3093.68 4135.76C3087.64 4142.3 3075.57 4149.34 3067.02 4152.35C3052.93 4156.38 3019.22 4157.38 2838.61 4156.88C2722.39 4156.38 2319.91 4155.37 1944.59 4154.87C1569.28 4154.37 1256.85 4152.86 1250.31 4151.85C1243.77 4150.34 1232.2 4145.82 1224.66 4141.79C1217.11 4137.27 1207.05 4129.22 1202.02 4124.19C1196.98 4118.66 1185.92 4106.09 1177.87 4095.53C1175.91 4092.96 1173.45 4089.75 1170.67 4086.11C1162.02 4074.79 1150.28 4059.44 1141.14 4047.25C1129.07 4031.66 1118.5 4018.09 1117.49 4017.08C1116.48 4016.4 1110.23 4008.45 1101.5 3997.35C1097.25 3991.94 1092.42 3985.79 1087.31 3979.36C1072.22 3959.25 1050.58 3931.59 1039.51 3917.51C1027.94 3903.43 1009.33 3879.79 997.756 3864.71C985.682 3849.62 973.608 3834.53 971.092 3831.52C968.433 3828.86 962.652 3821.13 957.186 3813.83L957.031 3813.62C956.344 3812.7 955.662 3811.79 954.993 3810.9C951.605 3806.38 944.731 3797.43 936.773 3787.07C930.549 3778.97 923.663 3770.01 917.26 3761.62C902.67 3743.01 868.962 3700.27 842.298 3666.57C815.633 3633.38 794 3604.22 794 3602.71C794 3600.7 798.528 3592.65 804.062 3584.6C809.596 3576.56 824.186 3559.96 837.267 3547.39C849.844 3535.32 866.447 3520.74 873.993 3514.7C881.54 3509.17 897.639 3498.11 909.714 3490.57C921.788 3483.02 938.893 3473.47 946.943 3469.95C955.496 3465.92 968.577 3460.39 976.123 3457.38C983.67 3453.86 1000.77 3448.32 1014.36 3444.8C1027.94 3441.28 1042.53 3438.27 1046.56 3438.27C1051.09 3438.27 1056.12 3436.25 1058.13 3434.24C1060.64 3431.23 1062.66 3409.1 1063.66 3378.42C1065.17 3346.24 1068.19 3312.55 1073.22 3289.41C1077.25 3268.29 1085.3 3237.62 1090.83 3220.52C1096.36 3203.92 1106.43 3178.28 1112.97 3164.2C1119.51 3150.12 1131.58 3126.98 1140.13 3112.9C1149.19 3098.82 1164.28 3076.19 1173.84 3063.12C1183.4 3050.04 1207.55 3023.89 1226.67 3004.78C1246.29 2985.68 1274.97 2961.03 1291.06 2949.97C1306.66 2938.91 1336.85 2921.31 1357.47 2910.24C1378.1 2899.68 1403.76 2888.12 1415.33 2884.09C1426.4 2880.07 1446.52 2874.04 1459.6 2870.52C1472.68 2866.49 1493.31 2861.46 1505.39 2858.95C1520.48 2855.93 1552.68 2854.42 1606.01 2854.42C1657.83 2854.42 1690.53 2855.93 1702.6 2858.45C1711.23 2860.5 1722.55 2863.56 1730.51 2865.71L1730.52 2865.71L1730.68 2865.75C1732.4 2866.22 1733.96 2866.64 1735.3 2867C1742.18 2868.83 1759.91 2874.41 1776.33 2879.58L1781.09 2881.08C1798.7 2887.11 1827.88 2899.18 1845.99 2908.23C1863.6 2917.28 1879.69 2924.83 1881.71 2924.83C1883.22 2924.83 1890.76 2915.77 1898.31 2904.71C1905.35 2894.15 1920.45 2874.04 1931.01 2860.96C1941.58 2847.89 1964.22 2823.75 1980.82 2808.16C1997.42 2792.07 2024.08 2768.93 2039.68 2756.36C2055.78 2744.29 2078.42 2727.7 2091 2720.66C2103.07 2713.11 2129.23 2699.03 2148.85 2688.98C2168.48 2679.42 2200.67 2666.35 2220.29 2659.81C2239.92 2653.27 2269.6 2644.72 2286.7 2640.7C2288.57 2640.3 2290.52 2639.89 2292.53 2639.46L2292.54 2639.46C2308.37 2636.09 2327.7 2631.98 2337.52 2630.64C2348.59 2628.63 2392.36 2627.63 2434.62 2628.13ZM1650.43 1370.07H1488.39L1305.73 1130.07V1370.07H1173.38V826.187H1305.73V1064.67L1486.88 826.187H1642.88L1432.03 1092.84L1650.43 1370.07ZM2007.71 937.378H2140.06V1370.07H2007.71V1311.2C1981.04 1347.93 1934.74 1374.59 1876.87 1374.59C1776.73 1374.59 1709.3 1305.67 1709.3 1189.95V937.378H1841.15V1172.34C1841.15 1231.2 1874.36 1263.91 1923.67 1263.91C1975 1263.91 2007.71 1231.2 2007.71 1172.34V937.378ZM2368.01 796V998.256C2392.17 959.516 2439.47 930.838 2501.36 930.838C2608.05 930.838 2692.08 1016.37 2692.08 1152.72C2692.08 1289.06 2607.54 1375.6 2501.36 1375.6C2437.96 1375.6 2392.17 1346.92 2368.01 1309.19V1369.56H2235.67V796H2368.01ZM2461.61 1260.38C2511.93 1260.38 2557.22 1221.64 2557.22 1152.72C2557.22 1083.79 2511.93 1046.56 2461.61 1046.56C2412.29 1046.56 2367.01 1084.29 2367.01 1153.22C2367.01 1222.15 2412.29 1260.38 2461.61 1260.38ZM3033.76 1111.46C3033.76 1064.17 2996.53 1037 2952.24 1037C2908.97 1037 2875.76 1063.66 2867.7 1111.46H3033.76ZM3018.17 1226.17H3159.07C3138.43 1310.7 3061.44 1375.6 2953.75 1375.6C2826.94 1375.6 2735.36 1290.57 2735.36 1153.22C2735.36 1016.37 2825.43 930.838 2953.75 930.838C3080.06 930.838 3169.13 1014.86 3169.13 1146.17C3169.13 1158.75 3168.63 1171.83 3167.12 1184.92H2867.2C2871.73 1241.77 2906.45 1267.93 2949.22 1267.93C2986.46 1267.93 3007.09 1249.32 3018.17 1226.17ZM784.987 1939.64C852.793 1955.98 938.672 1976.68 939.888 2073.94C939.888 2149.41 873.464 2205.76 764.77 2205.76C649.534 2205.76 572.039 2141.36 566 2057.84H696.836C699.855 2088.02 727.029 2108.15 763.26 2108.15C797.479 2108.15 815.595 2092.55 815.595 2073.43C815.595 2045.52 777.997 2036.76 732.814 2026.24C664.795 2010.4 579.587 1990.55 579.587 1895.33C579.587 1821.37 642.489 1760.99 755.712 1760.99C867.426 1760.99 929.321 1822.88 937.876 1908.41H815.595C811.569 1878.72 788.924 1859.61 751.686 1859.61C720.99 1859.61 703.881 1872.18 703.881 1892.81C703.881 1920.1 740.554 1928.94 784.987 1939.64ZM1153.75 2199.72H1021.41V1767.53H1153.75V2199.72ZM1166.34 1650.81C1166.34 1690.56 1134.63 1722.25 1088.34 1722.25C1041.03 1722.25 1009.33 1690.56 1009.33 1650.81C1009.33 1610.56 1041.03 1578.86 1088.34 1578.86C1134.63 1578.86 1166.34 1610.56 1166.34 1650.81ZM1978.02 2199.72H1846.18V1964.76C1846.18 1908.41 1813.47 1877.22 1763.15 1877.22C1712.83 1877.22 1680.12 1908.41 1680.12 1964.76V2199.72H1548.27V1964.76C1548.27 1908.41 1516.07 1877.22 1465.75 1877.22C1414.92 1877.22 1382.72 1908.41 1382.72 1964.76V2199.72H1249.87V1767.03H1382.72V1821.37C1408.38 1786.65 1452.16 1762.5 1509.02 1762.5C1573.94 1762.5 1626.78 1791.18 1655.96 1843C1684.65 1797.22 1738.99 1762.5 1801.9 1762.5C1908.58 1762.5 1978.02 1830.93 1978.02 1947.15V2199.72ZM2203.46 1767.53V1828.41C2227.11 1790.68 2272.9 1760.99 2336.81 1760.99C2442.99 1760.99 2527.03 1846.52 2527.03 1982.87C2527.03 2119.22 2442.99 2205.76 2336.81 2205.76C2272.9 2205.76 2227.11 2175.57 2203.46 2139.34V2406H2070.61V1767.53H2203.46ZM2297.06 2090.54C2347.38 2090.54 2392.17 2051.8 2392.17 1982.87C2392.17 1913.94 2347.38 1876.71 2297.06 1876.71C2247.24 1876.71 2202.45 1914.45 2202.45 1983.37C2202.45 2052.3 2247.24 2090.54 2297.06 2090.54ZM2729.32 2199.72H2596.97V1626.16H2729.32V2199.72ZM2958.28 2199.72H2825.43V1767.53H2958.28V2199.72ZM2970.36 1651.31C2970.36 1690.56 2938.66 1722.25 2892.36 1722.25C2845.06 1722.25 2813.36 1690.56 2813.36 1651.31C2813.36 1611.06 2845.06 1579.37 2892.36 1579.37C2938.66 1579.37 2970.36 1611.06 2970.36 1651.31ZM3199.83 2199.72H3067.48V1877.22H3019.17V1767.53H3067.48V1754.96C3067.48 1641.75 3136.92 1585.91 3268.77 1592.95V1705.65C3217.94 1702.13 3199.83 1717.73 3199.83 1763.51V1767.53H3271.28V1877.22H3199.83V2199.72ZM3432.31 1767.53L3532.45 2038.22L3631.58 1767.53H3775L3503.77 2405.5H3360.85L3460.49 2185.13L3284.37 1767.53H3432.31Z" fill="white"/>
<path fill-rule="evenodd" clip-rule="evenodd" d="M2166.64 3001.84C2134.08 3011.61 2115.96 3088.47 2131.57 3150.56C2134.25 3161.2 2134.61 3164.37 2134.61 3177.08V3191.52L2130.85 3193.09C2128.79 3193.96 2123.16 3195.26 2118.35 3195.98C2113.54 3196.7 2108.7 3197.77 2107.6 3198.36C2106.5 3198.95 2102.31 3199.95 2098.28 3200.57C2071.31 3204.76 2032.27 3221.73 1994.75 3245.59C1972.18 3259.94 1961.13 3256.93 1949.56 3233.29C1927.75 3188.76 1860.14 3138.54 1829.48 3144.11C1776.97 3153.64 1817.47 3240.79 1896.01 3287.28C1918.08 3300.34 1922.16 3309.67 1912.5 3324.96C1910.15 3328.67 1906.07 3335.1 1903.44 3339.24C1900.81 3343.39 1898.65 3347.13 1898.65 3347.56C1898.65 3347.99 1897.21 3350.58 1895.46 3353.33C1879.79 3377.8 1861.96 3427.79 1857.39 3460.11C1855.39 3474.2 1843.46 3477.99 1821.51 3471.5C1746.27 3449.26 1644.55 3481.06 1667.22 3519.74C1672.99 3529.59 1688.98 3542.63 1696.85 3543.91C1698.86 3544.24 1704.36 3545.85 1709.08 3547.49C1731.94 3555.44 1789.24 3555.82 1816.49 3548.2C1822.64 3546.49 1827.91 3545.87 1838.85 3545.61C1855.91 3545.21 1855.36 3544.82 1857.71 3559C1865.18 3604.25 1881.29 3645.2 1907.68 3686.05C1910.91 3691.04 1915.22 3697.97 1917.26 3701.46L1920.96 3707.78L1917.84 3711.73C1912.74 3718.17 1904.97 3724.61 1894.7 3730.93C1855.49 3755.02 1819.48 3795.64 1809.76 3826.73C1783.66 3910.18 1895.03 3878.06 1948.73 3786.64C1962.49 3763.22 1972.08 3758.52 1986.54 3768.11C2026.11 3794.36 2060.98 3810.07 2096.56 3817.68C2101.98 3818.84 2107.88 3820.39 2109.67 3821.14C2111.46 3821.88 2115.65 3822.81 2118.98 3823.19C2134.33 3824.94 2134.61 3825.27 2134.61 3841.66C2134.61 3852.22 2134.23 3854.93 2131.55 3863.66C2119.92 3901.43 2124.46 3955.81 2142.19 3991.1C2179.94 4066.23 2234.06 3970.61 2211.54 3868.57C2203.82 3833.58 2206.2 3826.62 2227.38 3822.25C2277.46 3811.93 2303.97 3801.14 2349.06 3772.75C2372.43 3758.03 2377.64 3759.73 2394.05 3787.46C2435.17 3856.95 2516.62 3898.42 2536.27 3859.87C2544.82 3843.09 2535.02 3817.56 2505.4 3779.49C2496.5 3768.05 2469.65 3744.32 2456.28 3736.08C2440.89 3726.6 2426.69 3715.26 2424.08 3710.37C2422.26 3706.98 2423.12 3705.08 2434.31 3687.69C2460.05 3647.69 2470.08 3624.86 2479.97 3583.7C2482.04 3575.1 2484.93 3563.07 2486.4 3556.97L2489.07 3545.88L2502.68 3545.91C2513.8 3545.94 2517.58 3546.35 2523.39 3548.17C2593.98 3570.19 2696.92 3537.65 2677.38 3499.49C2662.5 3470.44 2580.08 3453.86 2528.07 3469.45C2517.4 3472.65 2508.93 3473.59 2497.63 3472.84L2489.05 3472.27L2486.9 3463.69C2485.71 3458.98 2482.82 3446.95 2480.47 3436.97C2470.62 3395.13 2459.08 3368.92 2432.95 3329.09C2419.82 3309.07 2422.54 3301.45 2447.71 3287.62C2526.73 3244.18 2567.32 3143.35 2505.69 3143.56C2488.32 3143.62 2483.17 3145.93 2451.74 3167.75C2431.14 3182.06 2405.82 3210.72 2392.52 3234.78C2379.08 3259.12 2371.76 3260.46 2344.89 3243.46C2310.86 3221.94 2280.38 3208.44 2251.37 3202.06C2247.33 3201.17 2242.2 3199.99 2239.99 3199.45C2237.77 3198.9 2231.49 3197.57 2226.04 3196.48C2205.28 3192.35 2201.83 3184.85 2209.08 3159.66C2229.4 3089.12 2202.99 2990.92 2166.64 3001.84ZM2133.17 3289.99C2134.52 3293 2134.97 3383.98 2133.66 3388.85C2132.11 3394.62 2129.96 3396.32 2120.84 3399.01L2113.04 3401.3L2077.44 3365.66C2056.74 3344.94 2041.84 3329.25 2041.84 3328.19C2041.84 3324.06 2068.09 3308.9 2089.76 3300.52C2117.6 3289.73 2131.54 3286.36 2133.17 3289.99ZM2226.93 3291.69C2253.12 3298.71 2300.99 3322.11 2300.99 3327.89C2300.99 3328.55 2284.73 3345.34 2264.85 3365.22L2228.71 3401.35L2220.73 3398.59C2205.78 3393.42 2205.94 3394.09 2206.39 3336.94C2206.8 3284.14 2205.93 3286.06 2226.93 3291.69ZM1996.46 3385.77C1998.96 3387.74 2014.75 3403.25 2031.56 3420.22C2066.51 3455.53 2064.1 3451.35 2058.01 3465.98L2054.76 3473.78L2017.29 3473.77C1969.34 3473.77 1951.11 3473 1950.32 3470.94C1948.06 3465.05 1960.31 3429.99 1974.38 3402.09C1986.26 3378.53 1986.8 3378.13 1996.46 3385.77ZM2358.32 3384.99C2370.96 3402.44 2389.7 3448.99 2392.13 3468.99L2392.72 3473.78H2340.82H2288.93L2286.26 3468.51C2284.79 3465.61 2282.73 3460.77 2281.69 3457.74L2279.81 3452.25L2287.56 3444.11C2337 3392.16 2353.51 3378.36 2358.32 3384.99ZM2055.58 3549.04C2057.09 3551.61 2059.39 3556.65 2060.69 3560.24L2063.06 3566.78L2039.09 3591.12C2025.9 3604.51 2009.28 3621.13 2002.16 3628.05L1989.21 3640.64L1986.82 3637.87C1972.13 3620.79 1945.72 3553.34 1951.47 3547.58C1953.69 3545.36 1965.9 3544.78 2015.33 3544.55L2052.85 3544.37L2055.58 3549.04ZM2363.9 3545.04C2394.44 3545.82 2392.73 3545.04 2390.74 3557.34C2388.65 3570.33 2377.13 3600.68 2368.04 3617.18C2352.89 3644.65 2359.07 3646.33 2315.8 3603.04L2279.69 3566.92L2282.32 3559.94C2283.77 3556.1 2286.08 3551.03 2287.47 3548.66L2289.99 3544.37H2313.98C2327.18 3544.37 2349.64 3544.67 2363.9 3545.04ZM2259.21 3648.49C2306.9 3695.36 2305.51 3692.39 2284.86 3703.38C2261.35 3715.89 2228.68 3728.21 2213 3730.47L2208.2 3731.16L2208.47 3678.41L2208.73 3625.66L2216.79 3622.37C2228.81 3617.48 2225.73 3615.58 2259.21 3648.49ZM2128.81 3623.48L2134.61 3626.2V3678.7V3731.21L2129.78 3730.63C2123.09 3729.84 2101.09 3723.29 2093.77 3719.91C2090.44 3718.37 2085.45 3716.3 2082.68 3715.3C2069.79 3710.66 2041.84 3694.93 2041.84 3692.32C2041.84 3689.33 2104.53 3625.65 2111.82 3621.24C2114.89 3619.38 2122.09 3620.33 2128.81 3623.48Z" fill="white"/>
<path d="M6206.29 2803L5714.04 2200.28V2803H5442.72V1450.28H5714.04V2056.87L6206.29 1450.28H6533.82L5975.67 2120.82L6549.32 2803H6206.29ZM7741.36 1729.35V2803H7468.1V2667.34C7433.21 2713.85 7387.35 2750.67 7330.5 2777.81C7274.94 2803.65 7214.22 2816.57 7148.33 2816.57C7064.35 2816.57 6990.06 2799.12 6925.46 2764.24C6860.86 2728.06 6809.82 2675.74 6772.36 2607.26C6736.18 2537.49 6718.09 2454.81 6718.09 2359.2V1729.35H6989.41V2320.44C6989.41 2405.71 7010.73 2471.6 7053.37 2518.11C7096 2563.33 7154.14 2585.94 7227.79 2585.94C7302.72 2585.94 7361.51 2563.33 7404.14 2518.11C7446.78 2471.6 7468.1 2405.71 7468.1 2320.44V1729.35H7741.36ZM8280.38 1886.33C8315.26 1834.65 8363.07 1792.66 8423.79 1760.36C8485.81 1728.06 8556.22 1711.91 8635.03 1711.91C8726.76 1711.91 8809.45 1734.52 8883.1 1779.74C8958.03 1824.96 9016.82 1889.56 9059.45 1973.54C9103.38 2056.22 9125.35 2152.48 9125.35 2262.3C9125.35 2372.12 9103.38 2469.66 9059.45 2554.94C9016.82 2638.92 8958.03 2704.16 8883.1 2750.67C8809.45 2797.19 8726.76 2820.44 8635.03 2820.44C8554.93 2820.44 8484.51 2804.94 8423.79 2773.93C8364.36 2741.63 8316.55 2700.29 8280.38 2649.9V2803H8009.06V1368.88H8280.38V1886.33ZM8848.21 2262.3C8848.21 2197.7 8834.65 2142.14 8807.51 2095.63C8781.67 2047.83 8746.79 2011.65 8702.86 1987.1C8660.23 1962.55 8613.71 1950.28 8563.33 1950.28C8514.23 1950.28 8467.72 1963.2 8423.79 1989.04C8381.15 2013.59 8346.27 2049.76 8319.14 2097.57C8293.3 2145.37 8280.38 2201.57 8280.38 2266.17C8280.38 2330.77 8293.3 2386.98 8319.14 2434.78C8346.27 2482.58 8381.15 2519.41 8423.79 2545.25C8467.72 2569.79 8514.23 2582.07 8563.33 2582.07C8613.71 2582.07 8660.23 2569.15 8702.86 2543.31C8746.79 2517.47 8781.67 2480.65 8807.51 2432.84C8834.65 2385.04 8848.21 2328.19 8848.21 2262.3ZM10320.6 2242.92C10320.6 2281.68 10318 2316.56 10312.8 2347.57H9527.94C9534.4 2425.09 9561.53 2485.81 9609.33 2529.74C9657.14 2573.67 9715.92 2595.63 9785.69 2595.63C9886.47 2595.63 9958.17 2552.35 10000.8 2465.79H10293.4C10262.4 2569.15 10203 2654.42 10115.1 2721.6C10027.3 2787.5 9919.41 2820.44 9791.5 2820.44C9688.14 2820.44 9595.12 2797.83 9512.43 2752.61C9431.04 2706.1 9367.08 2640.85 9320.57 2556.87C9275.35 2472.89 9252.74 2375.99 9252.74 2266.17C9252.74 2155.06 9275.35 2057.52 9320.57 1973.54C9365.79 1889.56 9429.1 1824.96 9510.49 1779.74C9591.89 1734.52 9685.56 1711.91 9791.5 1711.91C9893.57 1711.91 9984.66 1733.87 10064.8 1777.8C10146.2 1821.73 10208.8 1884.39 10252.7 1965.78C10298 2045.89 10320.6 2138.27 10320.6 2242.92ZM10039.6 2165.4C10038.3 2095.63 10013.1 2040.07 9963.99 1998.73C9914.89 1956.09 9854.81 1934.78 9783.75 1934.78C9716.57 1934.78 9659.72 1955.45 9613.21 1996.79C9567.99 2036.84 9540.21 2093.05 9529.87 2165.4H10039.6ZM10929.5 2820.44C10841.6 2820.44 10762.8 2804.94 10693 2773.93C10623.3 2741.63 10567.7 2698.35 10526.4 2644.08C10486.3 2589.82 10464.4 2529.74 10460.5 2463.85H10733.7C10738.9 2505.19 10758.9 2539.43 10793.8 2566.56C10830 2593.7 10874.6 2607.26 10927.5 2607.26C10979.2 2607.26 11019.3 2596.93 11047.7 2576.25C11077.4 2555.58 11092.3 2529.1 11092.3 2496.8C11092.3 2461.91 11074.2 2436.07 11038 2419.28C11003.1 2401.19 10946.9 2381.81 10869.4 2361.14C10789.3 2341.76 10723.4 2321.73 10671.7 2301.06C10621.3 2280.39 10577.4 2248.73 10539.9 2206.1C10503.8 2163.46 10485.7 2105.97 10485.7 2033.61C10485.7 1974.18 10502.5 1919.92 10536.1 1870.82C10570.9 1821.73 10620 1782.97 10683.3 1754.54C10747.9 1726.12 10823.5 1711.91 10910.1 1711.91C11038 1711.91 11140.1 1744.21 11216.3 1808.81C11292.5 1872.11 11334.5 1958.03 11342.3 2066.56H11082.6C11078.7 2023.92 11060.6 1990.33 11028.3 1965.78C10997.3 1939.94 10955.3 1927.02 10902.3 1927.02C10853.2 1927.02 10815.1 1936.07 10788 1954.16C10762.2 1972.24 10749.2 1997.44 10749.2 2029.74C10749.2 2065.91 10767.3 2093.69 10803.5 2113.07C10839.7 2131.16 10895.9 2149.89 10972.1 2169.27C11049.6 2188.65 11113.6 2208.68 11164 2229.35C11214.4 2250.02 11257.6 2282.32 11293.8 2326.25C11331.3 2368.89 11350.7 2425.74 11352 2496.8C11352 2558.81 11334.5 2614.37 11299.6 2663.46C11266 2712.56 11216.9 2751.32 11152.3 2779.74C11089 2806.88 11014.7 2820.44 10929.5 2820.44ZM11712.3 1601.44C11664.5 1601.44 11624.4 1586.58 11592.1 1556.87C11561.1 1525.86 11545.6 1487.74 11545.6 1442.52C11545.6 1397.3 11561.1 1359.84 11592.1 1330.12C11624.4 1299.11 11664.5 1283.61 11712.3 1283.61C11760.1 1283.61 11799.5 1299.11 11830.5 1330.12C11862.8 1359.84 11878.9 1397.3 11878.9 1442.52C11878.9 1487.74 11862.8 1525.86 11830.5 1556.87C11799.5 1586.58 11760.1 1601.44 11712.3 1601.44ZM11846 1729.35V2803H11574.7V1729.35H11846ZM13447.4 1713.84C13579.2 1713.84 13685.1 1754.54 13765.2 1835.94C13846.6 1916.04 13887.3 2028.45 13887.3 2173.15V2803H13616V2209.97C13616 2125.99 13594.7 2062.04 13552.1 2018.11C13509.4 1972.89 13451.3 1950.28 13377.6 1950.28C13304 1950.28 13245.2 1972.89 13201.3 2018.11C13158.6 2062.04 13137.3 2125.99 13137.3 2209.97V2803H12866V2209.97C12866 2125.99 12844.7 2062.04 12802 2018.11C12759.4 1972.89 12701.3 1950.28 12627.6 1950.28C12552.7 1950.28 12493.3 1972.89 12449.3 2018.11C12406.7 2062.04 12385.4 2125.99 12385.4 2209.97V2803H12114.1V1729.35H12385.4V1859.19C12420.3 1813.97 12464.8 1778.44 12519.1 1752.6C12574.7 1726.76 12635.4 1713.84 12701.3 1713.84C12785.3 1713.84 12860.2 1731.93 12926.1 1768.11C12992 1802.99 13043 1853.38 13079.2 1919.27C13114.1 1857.26 13164.5 1807.51 13230.3 1770.05C13297.5 1732.58 13369.9 1713.84 13447.4 1713.84ZM14416.1 1884.39C14451 1835.29 14498.8 1794.59 14559.5 1762.29C14621.5 1728.7 14692 1711.91 14770.8 1711.91C14862.5 1711.91 14945.2 1734.52 15018.8 1779.74C15093.8 1824.96 15152.6 1889.56 15195.2 1973.54C15239.1 2056.22 15261.1 2152.48 15261.1 2262.3C15261.1 2372.12 15239.1 2469.66 15195.2 2554.94C15152.6 2638.92 15093.8 2704.16 15018.8 2750.67C14945.2 2797.19 14862.5 2820.44 14770.8 2820.44C14692 2820.44 14622.2 2804.29 14561.5 2771.99C14502 2739.69 14453.6 2698.99 14416.1 2649.9V3314.63H14144.8V1729.35H14416.1V1884.39ZM14984 2262.3C14984 2197.7 14970.4 2142.14 14943.3 2095.63C14917.4 2047.83 14882.5 2011.65 14838.6 1987.1C14796 1962.55 14749.5 1950.28 14699.1 1950.28C14650 1950.28 14603.5 1963.2 14559.5 1989.04C14516.9 2013.59 14482 2049.76 14454.9 2097.57C14429 2145.37 14416.1 2201.57 14416.1 2266.17C14416.1 2330.77 14429 2386.98 14454.9 2434.78C14482 2482.58 14516.9 2519.41 14559.5 2545.25C14603.5 2569.79 14650 2582.07 14699.1 2582.07C14749.5 2582.07 14796 2569.15 14838.6 2543.31C14882.5 2517.47 14917.4 2480.65 14943.3 2432.84C14970.4 2385.04 14984 2328.19 14984 2262.3ZM15729.6 1368.88V2803H15458.2V1368.88H15729.6ZM16135.2 1601.44C16087.4 1601.44 16047.4 1586.58 16015.1 1556.87C15984.1 1525.86 15968.6 1487.74 15968.6 1442.52C15968.6 1397.3 15984.1 1359.84 16015.1 1330.12C16047.4 1299.11 16087.4 1283.61 16135.2 1283.61C16183 1283.61 16222.4 1299.11 16253.4 1330.12C16285.7 1359.84 16301.9 1397.3 16301.9 1442.52C16301.9 1487.74 16285.7 1525.86 16253.4 1556.87C16222.4 1586.58 16183 1601.44 16135.2 1601.44ZM16269 1729.35V2803H15997.6V1729.35H16269ZM17029.3 1952.22H16841.3V2803H16566.1V1952.22H16444V1729.35H16566.1V1675.08C16566.1 1543.3 16603.6 1446.4 16678.5 1384.38C16753.4 1322.37 16866.5 1293.3 17017.6 1297.17V1525.86C16951.7 1524.57 16905.9 1535.55 16880 1558.8C16854.2 1582.06 16841.3 1624.05 16841.3 1684.77V1729.35H17029.3V1952.22ZM18232.2 1729.35L17567.5 3310.76H17278.7L17511.3 2775.87L17081.1 1729.35H17385.3L17662.5 2479.35L17943.5 1729.35H18232.2Z" fill="white"/>
</svg>
